<?xml version="1.0"?>
<svg xmlns="http://www.w3.org/2000/svg" viewBox="0 0 512 512" width="512" height="512"><g id="Outline"><circle cx="268" cy="187.997" r="12"/><circle cx="340" cy="187.997" r="12"/><path d="M277.766,240h52.468l6.177,18.53,15.178-5.06-8-24A8,8,0,0,0,336,224H272a8,8,0,0,0-7.589,5.47l-8,24,15.178,5.06Z"/><path d="M86.035,153.378a31.774,31.774,0,0,0-5.548,23.859l15.784-2.621a16,16,0,0,1,13.181-18.4l-2.617-15.785A31.811,31.811,0,0,0,86.035,153.378Z"/><rect x="272" y="376" width="16" height="16"/><path d="M415.919,322.192l-37.109-5.3L360.952,306.88a7.972,7.972,0,0,0-8.952.773V295.966A79.8,79.8,0,0,0,384,232v-8a32,32,0,0,0,0-64h0a81.929,81.929,0,0,0-.94-12.236A7.971,7.971,0,0,0,384,144V95.2a39.984,39.984,0,1,0-32-71.051,39.432,39.432,0,0,0-48,0,39.432,39.432,0,0,0-48,0A39.95,39.95,0,1,0,224,95.2V144a7.971,7.971,0,0,0,.94,3.761A81.929,81.929,0,0,0,224,160h0a32,32,0,0,0,0,64v8a79.793,79.793,0,0,0,32,63.967v11.685a7.974,7.974,0,0,0-8.975-.758l-17.649,9.971-37.3,5.327a56,56,0,0,0-25.5,10.534L145.64,226.484a64.025,64.025,0,0,0-56.462-114.3,64,64,0,0,0,8.745,122.226l14.541,107.451c0,.034,0,.067.009.1l5.752,42.245A8,8,0,0,0,112,392v64a8,8,0,0,0,8,8h9.009l.667,4.94a31.252,31.252,0,0,0,19.38,24.819A31.616,31.616,0,0,0,160.7,495.98L224,496a7.981,7.981,0,0,0,1.694-.182l65-14.079,92.093,14.168A7.982,7.982,0,0,0,384,496h48a32.036,32.036,0,0,0,32-32V377.63A56.276,56.276,0,0,0,415.919,322.192Zm-55,3.011,11.372,6.375a8,8,0,0,0,2.781.942l38.588,5.512A40.2,40.2,0,0,1,448,377.63v6.212l-38.431-7.687a7.993,7.993,0,0,0-6.007,1.189L357.578,408H256V338.3A63.946,63.946,0,0,0,360.916,325.2ZM441.963,408H386.422l23.259-15.506,31.106,6.222ZM272,320V305.316a79.948,79.948,0,0,0,64,0V320a7.994,7.994,0,0,0,4.467,7.17,47.932,47.932,0,0,1-72.934,0A7.994,7.994,0,0,0,272,320ZM240,136V120H368v16Zm160,56a16.019,16.019,0,0,1-16,16V176A16.019,16.019,0,0,1,400,192ZM208,56a24.028,24.028,0,0,1,24-24,23.632,23.632,0,0,1,17.977,8.3,8,8,0,0,0,12.046,0,23.615,23.615,0,0,1,35.954,0,8,8,0,0,0,12.046,0,23.615,23.615,0,0,1,35.954,0,8,8,0,0,0,12.046,0A23.632,23.632,0,0,1,376,32a24,24,0,0,1,0,48,8,8,0,0,0-8,8v16H352V72H336v32H312V72H296v32H272V72H256v32H240V88a8,8,0,0,0-8-8A24.028,24.028,0,0,1,208,56Zm0,136a16.019,16.019,0,0,1,16-16v32A16.019,16.019,0,0,1,208,192Zm32,40V168.321L254,152H354l14,16.321V232a64.062,64.062,0,0,1-56,63.492V271.009a113.709,113.709,0,0,0,18.319-3.912l-4.638-15.313A99.062,99.062,0,0,1,296.934,256H280v16h16v23.492A64.059,64.059,0,0,1,240,232ZM194.343,338.032l38.788-5.541a8.013,8.013,0,0,0,2.805-.955l4.064-2.3V408h-6.111l-46.311-23.155A7.994,7.994,0,0,0,184,384h-7.338l-6.483-33.009A40.053,40.053,0,0,1,194.343,338.032Zm-60,45.968-4.964-36.464,22.077-3.66.99-.163L160.357,384Zm-28.28-164.394A48.207,48.207,0,0,1,64.01,170.554a47.6,47.6,0,0,1,30.75-43.379,49.75,49.75,0,0,1,17.361-3.152,47.967,47.967,0,0,1,21.036,91.091,8,8,0,0,0-4.344,8.739l20.531,104.155-.612.1-21.5,3.539L113,226.471A8,8,0,0,0,106.064,219.606Zm48.866,259.27a15.224,15.224,0,0,1-9.4-12.107L145.154,464h30.234l.554.085a15.308,15.308,0,0,1-10.067,15.042,22.577,22.577,0,0,1-2.688.658A15.376,15.376,0,0,1,154.93,478.876ZM223.144,480H187.963a31.312,31.312,0,0,0,3.948-13.458l54.59,8.4ZM432,480H384.612l-207.4-31.907A7.982,7.982,0,0,0,176,448H128V400h54.111l46.311,23.155A7.994,7.994,0,0,0,232,424H448v40A16.019,16.019,0,0,1,432,480Z"/></g></svg>
